Straponcum.com - 3. Room Mates


3. Room Mates

Three friends are sitting around the apartment bored and horny. They cannot resist the urge to kiss and fondle each other. One friend has a big, juicy surprise. It is a strap on that shoots cum! Once she has the strap on in place, she is quickly the center of attention.

What is Strapon Cum?
Hot, juicy young girls in sexy, kinky outfits play and fuck each other with
big strapon that squirts loads of hot gooey cum!! Dungeons & slave training!
Girl-on-girl bondage! Hours of young girls begging for mercy...and more!
 
http://bayimg.com/FabjEAAEj

Format                                   : Windows Media
File size                                : 944 MiB
Duration                                 : 31mn 20s
Overall bit rate mode                    : Constant
Overall bit rate                         : 4 210 Kbps
Maximum Overall bit rate                 : 4 229 Kbps
Performer                                : www.straponcum.com ┬⌐ 2008
Encoded date                             : UTC 2008-06-15 08:32:32.437
SfOriginalFPS                            : 250000

Video
ID                                       : 2
Format                                   : VC-1
Format profile                           : MP@HL
Codec ID                                 : WMV3
Codec ID/Info                            : Windows Media Video 9
Codec ID/Hint                            : WMV3
Description of the codec                 : Windows Media Video 9 - Professional
Duration                                 : 31mn 20s
Bit rate mode                            : Constant
Bit rate                                 : 4 146 Kbps
Width                                    : 960 pixels
Height                                   : 540 pixels
Display aspect ratio                     : 16:9
Frame rate                               : 25.000 fps
Bit depth                                : 8 bits
Scan type                                : Progressive
Compression mode                         : Lossy
Bits/(Pixel*Frame)                       : 0.320
Stream size                              : 929 MiB (98%)
Language                                 : English (US)

Audio
ID                                       : 1
Format                                   : WMA
Format version                           : Version 2
Codec ID                                 : 161
Codec ID/Info                            : Windows Media Audio
Description of the codec                 : Windows Media Audio 9.2 -  48 kbps, 44 kHz, stereo (A/V) 1-pass CBR
Duration                                 : 31mn 20s
Bit rate mode                            : Constant
Bit rate                                 : 48.0 Kbps
Channel(s)                               : 2 channels
Sampling rate                            : 44.1 KHz
Bit depth                                : 16 bits
Stream size                              : 10.8 MiB (1%)
Language                                 : English (US)

